<svg width="17" height="16" viewBox="0 0 17 16" fill="none" xmlns="http://www.w3.org/2000/svg">
<path d="M8.34448 0.000183105C3.86159 0.000177058 0.212524 3.58954 0.212524 8.00078C0.212524 12.412 3.86159 16.0002 8.34448 16.0002C11.8947 15.9975 14.9311 13.6623 15.9963 10.3579C16.0057 10.3483 16.0235 10.3544 16.0329 10.3447L16.014 10.3351C16.0471 10.2314 16.1611 10.1823 16.1899 10.0767C16.227 9.94478 16.2183 9.8045 16.1652 9.67799C16.1122 9.55149 16.0179 9.44599 15.8971 9.37815C15.7763 9.31032 15.6359 9.28402 15.4982 9.30343C15.3605 9.32283 15.2334 9.38682 15.1368 9.48529C14.1765 10.4568 12.8573 11.0071 11.4801 11.0082C8.65311 11.0082 6.37804 8.76474 6.37801 5.98262C6.37912 3.88073 7.70492 2.00782 9.70733 1.27674C9.83774 1.22947 9.94846 1.14083 10.022 1.02479C10.0955 0.908762 10.1276 0.771947 10.1133 0.635941C10.099 0.499934 10.0391 0.372481 9.94305 0.273688C9.84697 0.174896 9.7202 0.110392 9.58273 0.0903541C9.17232 0.0279721 8.75975 0.000222648 8.34448 0.000183105ZM7.23148 1.67579C6.02279 2.82988 5.12731 4.25642 5.12641 5.9826C5.12641 9.42977 7.97625 12.2391 11.4795 12.2391C11.4811 12.2391 11.4826 12.2391 11.4842 12.2391C12.4364 12.2383 13.1675 11.5797 14.0108 11.1849C12.8043 13.2351 10.8416 14.7674 8.34433 14.7693C4.53773 14.7693 1.46463 11.747 1.46463 8.00078C1.46463 4.68245 4.03513 2.26096 7.23148 1.67579ZM13.2156 1.84407C13.0503 1.84471 12.892 1.90966 12.7752 2.02475C12.6585 2.13983 12.5928 2.2957 12.5925 2.4583V3.68916H11.3415C11.2589 3.68884 11.177 3.70461 11.1007 3.73554C11.0244 3.76648 10.955 3.81198 10.8967 3.86941C10.8383 3.92685 10.792 3.99508 10.7606 4.07018C10.7291 4.14529 10.7131 4.22577 10.7135 4.307C10.7138 4.38782 10.7303 4.46778 10.762 4.54233C10.7938 4.61688 10.8401 4.68455 10.8984 4.74147C10.9567 4.7984 11.0258 4.84346 11.1019 4.8741C11.1779 4.90474 11.2593 4.92034 11.3415 4.92002H12.5925V6.15089C12.5922 6.2317 12.608 6.3118 12.6392 6.38658C12.6703 6.46137 12.7161 6.52939 12.7739 6.58677C12.8318 6.64414 12.9006 6.68973 12.9764 6.72095C13.0522 6.75217 13.1334 6.7684 13.2156 6.76872C13.2981 6.76904 13.3799 6.75328 13.4563 6.72234C13.5326 6.6914 13.602 6.64591 13.6604 6.58847C13.7188 6.53104 13.7649 6.4628 13.7964 6.3877C13.8278 6.31259 13.8439 6.23211 13.8436 6.15089V4.92002H15.091C15.2569 4.92066 15.4162 4.85643 15.534 4.74146C15.6518 4.6265 15.7183 4.47022 15.7189 4.307C15.7192 4.22577 15.7032 4.14529 15.6718 4.07019C15.6404 3.99509 15.5941 3.92685 15.5357 3.86942C15.4774 3.81198 15.408 3.76649 15.3317 3.73555C15.2554 3.70461 15.1735 3.68885 15.091 3.68916H13.8436V2.4583C13.8434 2.37738 13.827 2.29728 13.7954 2.2226C13.7637 2.14791 13.7174 2.0801 13.6591 2.02305C13.6008 1.966 13.5315 1.92082 13.4554 1.89011C13.3793 1.8594 13.2978 1.84375 13.2156 1.84407Z" fill="#747881"/>
</svg>
