<svg width="26" height="26" viewBox="0 0 26 26" fill="none" xmlns="http://www.w3.org/2000/svg">
<path d="M1.33334 21.3557L9.62084 24.5481C10.1392 24.7496 10.7299 24.349 10.725 23.7892V21.4094H16.1818C16.3973 21.4094 16.6039 21.3238 16.7563 21.1714C16.9087 21.019 16.9943 20.8124 16.9943 20.5969V14.5056C16.9943 14.2901 16.9087 14.0834 16.7563 13.931C16.6039 13.7787 16.3973 13.6931 16.1818 13.6931C15.9663 13.6931 15.7596 13.7787 15.6073 13.931C15.4549 14.0834 15.3693 14.2901 15.3693 14.5056V19.7844H10.725V5.4023C10.7251 5.23798 10.6754 5.07749 10.5824 4.94201C10.4895 4.80653 10.3576 4.70242 10.2042 4.64343L5.99547 3.02249H15.3693V8.3013C15.3693 8.51679 15.4549 8.72345 15.6073 8.87583C15.7596 9.0282 15.9663 9.1138 16.1818 9.1138C16.3973 9.1138 16.6039 9.0282 16.7563 8.87583C16.9087 8.72345 16.9943 8.51679 16.9943 8.3013V2.2108C16.9943 1.99531 16.9087 1.78865 16.7563 1.63628C16.6039 1.48391 16.3973 1.3983 16.1818 1.3983H1.62503C1.20984 1.36824 0.808468 1.80049 0.812531 2.2108V20.5977C0.812531 20.9341 1.01891 21.2347 1.33334 21.3557ZM9.10003 22.6054L2.43753 20.0395V3.39462L9.10003 5.96049V22.6054Z" fill="#747881"/>
<path d="M20.4319 15.3473C20.5073 15.4228 20.5969 15.4828 20.6954 15.5236C20.794 15.5645 20.8997 15.5855 21.0064 15.5855C21.1131 15.5855 21.2187 15.5645 21.3173 15.5236C21.4159 15.4828 21.5054 15.4228 21.5808 15.3473L24.9494 11.9787C25.025 11.9032 25.0849 11.8136 25.1258 11.715C25.1667 11.6164 25.1877 11.5106 25.1877 11.4039C25.1877 11.2971 25.1667 11.1913 25.1258 11.0927C25.0849 10.9941 25.025 10.9045 24.9494 10.829L21.5808 7.46038C21.5054 7.38495 21.4158 7.32511 21.3173 7.28428C21.2187 7.24346 21.1131 7.22244 21.0064 7.22244C20.8997 7.22244 20.7941 7.24346 20.6955 7.28428C20.5969 7.32511 20.5074 7.38495 20.4319 7.46038C20.3565 7.53582 20.2967 7.62537 20.2558 7.72394C20.215 7.8225 20.194 7.92814 20.194 8.03482C20.194 8.1415 20.215 8.24714 20.2558 8.3457C20.2967 8.44427 20.3565 8.53382 20.4319 8.60926L22.4136 10.5901H12.7213C12.5058 10.5901 12.2992 10.6757 12.1468 10.8281C11.9944 10.9805 11.9088 11.1871 11.9088 11.4026C11.9088 11.6181 11.9944 11.8248 12.1468 11.9772C12.2992 12.1295 12.5058 12.2151 12.7213 12.2151H22.4136L20.4319 14.1968C20.3564 14.2723 20.2964 14.362 20.2555 14.4607C20.2146 14.5594 20.1936 14.6652 20.1936 14.7721C20.1936 14.8789 20.2146 14.9847 20.2555 15.0834C20.2964 15.1821 20.3564 15.2718 20.4319 15.3473Z" fill="#747881"/>
</svg>
