<svg width="26" height="26" viewBox="0 0 26 26" fill="none" xmlns="http://www.w3.org/2000/svg">
<path d="M16.7982 9.38579C19.7156 12.3061 19.6755 16.9882 16.8158 19.8638C16.8104 19.8697 16.8041 19.876 16.7982 19.8819L13.517 23.1631C10.6229 26.0572 5.91448 26.0568 3.02087 23.1631C0.126831 20.2696 0.126831 15.5606 3.02087 12.667L4.83269 10.8552C5.31316 10.3747 6.1406 10.6941 6.16541 11.3731C6.19705 12.2384 6.35222 13.1078 6.63855 13.9474C6.73552 14.2316 6.66624 14.5461 6.45383 14.7585L5.81482 15.3975C4.44636 16.766 4.40344 18.9942 5.75842 20.376C7.12678 21.7715 9.3759 21.7798 10.7548 20.4009L14.036 17.1202C15.4125 15.7436 15.4068 13.5187 14.036 12.148C13.8553 11.9676 13.6733 11.8275 13.5311 11.7296C13.4305 11.6605 13.3474 11.5689 13.2885 11.462C13.2296 11.3551 13.1965 11.236 13.1919 11.1141C13.1725 10.5981 13.3553 10.0664 13.7631 9.65869L14.7911 8.63061C15.0607 8.36103 15.4836 8.32792 15.7962 8.54609C16.1542 8.79606 16.4895 9.07705 16.7982 9.38579ZM23.6798 2.50385C20.7862 -0.389801 16.0778 -0.390192 13.1837 2.50385L9.90247 5.7851C9.89661 5.79096 9.89026 5.79731 9.88489 5.80317C7.02522 8.67875 6.98513 13.3608 9.90247 16.2812C10.2112 16.5899 10.5465 16.8709 10.9045 17.1208C11.2171 17.339 11.64 17.3059 11.9095 17.0363L12.9376 16.0082C13.3453 15.6005 13.5281 15.0688 13.5088 14.5529C13.5041 14.4309 13.471 14.3118 13.4121 14.2049C13.3532 14.098 13.2701 14.0064 13.1696 13.9373C13.0274 13.8394 12.8453 13.6993 12.6646 13.5189C11.2939 12.1482 11.2881 9.92328 12.6646 8.54677L15.9459 5.26601C17.3247 3.88715 19.5738 3.89545 20.9422 5.29091C22.2972 6.67275 22.2543 8.90097 20.8858 10.2694L20.2468 10.9084C20.0344 11.1208 19.9651 11.4353 20.0621 11.7196C20.3484 12.5591 20.5036 13.4285 20.5352 14.2938C20.5601 14.9728 21.3875 15.2922 21.8679 14.8117L23.6798 12.9999C26.5739 10.1064 26.5739 5.39741 23.6798 2.50385Z" fill="#747881"/>
</svg>
