<svg width="26" height="25" viewBox="0 0 26 25" fill="none" xmlns="http://www.w3.org/2000/svg">
<path d="M1.32904 11.7107C1.09208 11.5033 0.958954 11.2221 0.958954 10.9288C0.958954 10.6356 1.09208 10.3544 1.32904 10.147L10.2623 2.33535C11.0792 1.60216 12.0544 1.01819 13.1313 0.617332C14.2081 0.216471 15.3653 0.00668974 16.5355 0.000157407C17.7057 -0.00637493 18.8658 0.190471 19.9484 0.579279C21.031 0.968086 22.0147 1.54111 22.8422 2.26513C23.6698 2.98914 24.3248 3.84973 24.7693 4.79697C25.2139 5.74421 25.439 6.75925 25.4317 7.78322C25.4244 8.80718 25.1849 9.81969 24.7269 10.762C24.2689 11.7043 23.6017 12.5577 22.7639 13.2727L11.1549 23.4306C9.96552 24.4454 8.36709 25.0092 6.70596 24.9999C5.04483 24.9906 3.4548 24.4089 2.28042 23.3809C1.10605 22.3528 0.44194 20.9613 0.431998 19.5078C0.422056 18.0543 1.06709 16.6559 2.22731 15.6157L12.0493 7.02134C12.7629 6.41189 13.7222 6.0731 14.7193 6.07844C15.7164 6.08379 16.6709 6.43283 17.3759 7.04989C18.0808 7.66694 18.4794 8.50227 18.4851 9.37475C18.4909 10.2472 18.1034 11.0865 17.4066 11.7107L10.2623 17.9603C10.0256 18.1675 9.7045 18.2838 9.36973 18.2838C9.03495 18.2838 8.71389 18.1675 8.47716 17.9603C8.24044 17.7532 8.10745 17.4722 8.10745 17.1793C8.10745 16.8864 8.24044 16.6055 8.47716 16.3983L15.6196 10.147C15.7368 10.0444 15.8298 9.92268 15.8932 9.78867C15.9566 9.65467 15.9893 9.51105 15.9893 9.366C15.9893 9.22096 15.9566 9.07733 15.8932 8.94333C15.8298 8.80932 15.7368 8.68756 15.6196 8.585C15.5024 8.48244 15.3632 8.40108 15.2101 8.34558C15.0569 8.29007 14.8928 8.2615 14.727 8.2615C14.5612 8.2615 14.3971 8.29007 14.244 8.34558C14.0908 8.40108 13.9517 8.48244 13.8344 8.585L4.01244 17.1793C3.30202 17.8009 2.90291 18.644 2.90291 19.5231C2.90291 19.9584 3.00089 20.3895 3.19127 20.7916C3.38164 21.1938 3.66068 21.5592 4.01244 21.867C4.3642 22.1748 4.78181 22.4189 5.24141 22.5855C5.70102 22.7521 6.19361 22.8378 6.69108 22.8378C7.69577 22.8378 8.65931 22.4886 9.36973 21.867L20.9788 11.709C21.5882 11.2006 22.0753 10.5907 22.4114 9.9151C22.7474 9.23954 22.9257 8.51199 22.9357 7.77526C22.9456 7.03852 22.7871 6.30748 22.4694 5.62516C22.1516 4.94283 21.6812 4.32299 21.0856 3.80212C20.4901 3.28124 19.7815 2.86985 19.0016 2.59214C18.2217 2.31443 17.3861 2.17602 16.5442 2.18505C15.7022 2.19408 14.8708 2.35036 14.0989 2.64471C13.3269 2.93906 12.6301 3.36552 12.0493 3.89901L3.11988 11.7107C2.88297 11.9175 2.56198 12.0337 2.22731 12.0337C1.89265 12.0337 1.57165 11.9175 1.33475 11.7107" fill="#747881"/>
</svg>
