<svg width="36" height="32" viewBox="0 0 36 32" fill="none" xmlns="http://www.w3.org/2000/svg">
<path d="M33.75 0H2.25C1.00911 0 0 1.3005 0 2.89969C0 4.49888 1.00911 5.79938 2.25 5.79938H33.75C34.9904 5.79938 36 4.49888 36 2.89969C36 1.3005 34.9904 0 33.75 0ZM33.75 13.1003H2.25C1.00911 13.1003 0 14.4008 0 16C0 17.5992 1.00911 18.8997 2.25 18.8997H33.75C34.9904 18.8997 36 17.5992 36 16C36 14.4008 34.9904 13.1003 33.75 13.1003ZM33.75 26.2006H2.25C1.00911 26.2006 0 27.501 0 29.1003C0 30.6995 1.00911 32 2.25 32H33.75C34.9904 32 36 30.6995 36 29.1003C36 27.501 34.9904 26.2006 33.75 26.2006Z" fill="#747881"/>
</svg>
