<svg width="95" height="86" viewBox="0 0 95 86" fill="none" xmlns="http://www.w3.org/2000/svg">
<path d="M83.2772 0H23.3789C18.2653 0 13.9068 3.55728 12.3092 8.4994H71.8493C80.3604 8.4994 87.2831 15.9767 87.2831 25.1695V58.6901C91.7808 56.9185 95 52.253 95 46.7898V12.6619C95 5.67963 89.7416 0 83.2772 0Z" fill="#747881"/>
<path d="M70.5078 13.71H11.7229C5.2584 13.71 0 19.3897 0 26.372V59.2973C0 66.2796 5.2584 71.9593 11.7229 71.9593H14.8011V82.9938C14.8011 84.06 15.3225 85.046 16.1741 85.5852C16.6083 85.8617 17.0963 86 17.5843 86C18.05 86 18.5176 85.8737 18.9388 85.6192L41.6534 71.9593H70.5078C76.9723 71.9593 82.2307 66.2796 82.2307 59.2973V26.372C82.2307 19.3897 76.9723 13.71 70.5078 13.71Z" fill="#747881"/>
</svg>
