<svg width="150" height="140" viewBox="0 0 150 140" fill="none" xmlns="http://www.w3.org/2000/svg">
<path d="M131.49 0H36.9141C28.8398 0 21.958 5.79092 19.4355 13.8362H113.446C126.885 13.8362 137.815 26.0086 137.815 40.9736V95.5421C144.917 92.658 150 85.063 150 76.1694V20.6124C150 9.2459 141.697 0 131.49 0Z" fill="#747881"/>
<path d="M111.328 22.3187H18.5098C8.30273 22.3187 0 31.5646 0 42.9311V96.5306C0 107.897 8.30273 117.143 18.5098 117.143H23.3701V135.106C23.3701 136.842 24.1934 138.447 25.5381 139.325C26.2236 139.775 26.9941 140 27.7646 140C28.5 140 29.2383 139.794 29.9033 139.38L65.7686 117.143H111.328C121.535 117.143 129.838 107.897 129.838 96.5306V42.9311C129.838 31.5646 121.535 22.3187 111.328 22.3187ZM37.6904 77.1416C33.0439 77.1416 29.2646 72.933 29.2646 67.7587C29.2646 62.5843 33.0439 58.3725 37.6904 58.3725C42.3398 58.3725 46.1191 62.5843 46.1191 67.7587C46.1191 72.933 42.3398 77.1416 37.6904 77.1416ZM64.9189 77.1416C60.2725 77.1416 56.4932 72.933 56.4932 67.7587C56.4932 62.5843 60.2725 58.3725 64.9189 58.3725C69.5654 58.3725 73.3447 62.5843 73.3447 67.7587C73.3447 72.933 69.5654 77.1416 64.9189 77.1416ZM92.1504 77.1416C87.501 77.1416 83.7217 72.933 83.7217 67.7587C83.7217 62.5843 87.501 58.3725 92.1504 58.3725C96.7969 58.3725 100.576 62.5843 100.576 67.7587C100.576 72.933 96.7969 77.1416 92.1504 77.1416Z" fill="#747881"/>
</svg>
