<svg width="17" height="17" viewBox="0 0 17 17" fill="none" xmlns="http://www.w3.org/2000/svg">
<path d="M8.49101 0C3.79901 0 -0.000488281 3.808 -0.000488281 8.5C-0.000488281 13.192 3.79901 17 8.49101 17C13.1915 17 16.9995 13.192 16.9995 8.5C16.9995 3.808 13.1915 0 8.49101 0ZM8.49951 15.3C4.74251 15.3 1.69951 12.257 1.69951 8.5C1.69951 4.743 4.74251 1.7 8.49951 1.7C12.2565 1.7 15.2995 4.743 15.2995 8.5C15.2995 12.257 12.2565 15.3 8.49951 15.3ZM11.4745 7.65C12.18 7.65 12.7495 7.0805 12.7495 6.375C12.7495 5.6695 12.18 5.1 11.4745 5.1C10.769 5.1 10.1995 5.6695 10.1995 6.375C10.1995 7.0805 10.769 7.65 11.4745 7.65ZM5.52451 7.65C6.23001 7.65 6.79951 7.0805 6.79951 6.375C6.79951 5.6695 6.23001 5.1 5.52451 5.1C4.81901 5.1 4.24951 5.6695 4.24951 6.375C4.24951 7.0805 4.81901 7.65 5.52451 7.65ZM8.49951 13.175C10.48 13.175 12.163 11.934 12.843 10.2H4.15601C4.83601 11.934 6.51901 13.175 8.49951 13.175Z" fill="#747881"/>
</svg>
