<svg width="26" height="26" viewBox="0 0 26 26" fill="none" xmlns="http://www.w3.org/2000/svg">
<path fill-rule="evenodd" clip-rule="evenodd" d="M23.8578 11.077L21.6264 17.7711C20.0532 22.491 19.2665 24.8509 18.1129 25.5215C17.0156 26.1595 15.6602 26.1595 14.5629 25.5215C13.4093 24.8509 12.6226 22.491 11.0494 17.7711C10.7968 17.0134 10.6704 16.6344 10.4584 16.3177C10.2529 16.0108 9.98926 15.747 9.68232 15.5416C9.3656 15.3296 8.98668 15.2032 8.22884 14.9506C3.50901 13.3774 1.1491 12.5908 0.478482 11.4371C-0.159494 10.3398 -0.159494 8.98445 0.478482 7.88707C1.1491 6.73353 3.50901 5.94689 8.22884 4.37361L14.923 2.14224C20.7709 0.192943 23.6949 -0.781706 25.2382 0.761732C26.7817 2.30518 25.8071 5.22914 23.8578 11.077ZM14.3594 11.5729C13.9807 11.19 13.9842 10.5726 14.3671 10.194L19.8407 4.78064C20.2236 4.40199 20.841 4.40541 21.2195 4.78829C21.5982 5.17115 21.5948 5.78847 21.212 6.16712L15.7382 11.5805C15.3554 11.9591 14.7381 11.9557 14.3594 11.5729Z" fill="#747881"/>
</svg>
