<svg width="26" height="26" viewBox="0 0 26 26" fill="none" xmlns="http://www.w3.org/2000/svg">
<path d="M25.5085 21.9497L20.6404 17.0815C20.4207 16.8618 20.1228 16.7397 19.8103 16.7397H19.0144C20.3621 15.0161 21.1628 12.8481 21.1628 10.4897C21.1628 4.87939 16.6169 0.333496 11.0066 0.333496C5.39624 0.333496 0.850342 4.87939 0.850342 10.4897C0.850342 16.1001 5.39624 20.646 11.0066 20.646C13.365 20.646 15.533 19.8452 17.2566 18.4976V19.2935C17.2566 19.606 17.3787 19.9038 17.5984 20.1235L22.4666 24.9917C22.9255 25.4507 23.6677 25.4507 24.1218 24.9917L25.5037 23.6099C25.9626 23.1509 25.9626 22.4087 25.5085 21.9497ZM11.0066 16.7397C7.55444 16.7397 4.75659 13.9468 4.75659 10.4897C4.75659 7.0376 7.54956 4.23975 11.0066 4.23975C14.4587 4.23975 17.2566 7.03271 17.2566 10.4897C17.2566 13.9419 14.4636 16.7397 11.0066 16.7397Z" fill="#747881"/>
</svg>
