<svg width="16" height="16" viewBox="0 0 16 16" fill="none" xmlns="http://www.w3.org/2000/svg">
<path d="M7.99151 0C3.57551 0 -0.000488281 3.584 -0.000488281 8C-0.000488281 12.416 3.57551 16 7.99151 16C12.4155 16 15.9995 12.416 15.9995 8C15.9995 3.584 12.4155 0 7.99151 0ZM7.99951 14.4C4.46351 14.4 1.59951 11.536 1.59951 8C1.59951 4.464 4.46351 1.6 7.99951 1.6C11.5355 1.6 14.3995 4.464 14.3995 8C14.3995 11.536 11.5355 14.4 7.99951 14.4ZM10.7995 7.2C11.4635 7.2 11.9995 6.664 11.9995 6C11.9995 5.336 11.4635 4.8 10.7995 4.8C10.1355 4.8 9.59951 5.336 9.59951 6C9.59951 6.664 10.1355 7.2 10.7995 7.2ZM5.19951 7.2C5.86351 7.2 6.39951 6.664 6.39951 6C6.39951 5.336 5.86351 4.8 5.19951 4.8C4.53551 4.8 3.99951 5.336 3.99951 6C3.99951 6.664 4.53551 7.2 5.19951 7.2ZM7.99951 12.4C9.86351 12.4 11.4475 11.232 12.0875 9.6H3.91151C4.55151 11.232 6.13551 12.4 7.99951 12.4Z" fill="#747881"/>
</svg>
